<?xml version="1.0" encoding="utf-8"?>
<!-- Generator: Adobe Illustrator 16.0.3, SVG Export Plug-In . SVG Version: 6.00 Build 0)  -->
<!DOCTYPE svg PUBLIC "-//W3C//DTD SVG 1.1//EN" "http://www.w3.org/Graphics/SVG/1.1/DTD/svg11.dtd">
<svg version="1.1" id="Capa_1" xmlns="http://www.w3.org/2000/svg" xmlns:xlink="http://www.w3.org/1999/xlink" x="0px" y="0px"
	 width="128px" height="128px" viewBox="0 0 128 128" enable-background="new 0 0 128 128" xml:space="preserve">
<g>
	<path fill="#61C2D3" d="M127.613,16.885v35.826c-6.753-5.693-14.913-9.829-23.925-11.794L127.613,16.885z"/>
	<g>
		<path fill="#61C2D3" d="M108.298,0.161L53.52,54.736l-0.059,0.03c-11.039,10.295-17.936,25.146-17.936,41.43
			c0,11.621,3.523,22.386,9.54,31.573v0.027H15.298c-8.395,0-15.381-6.868-15.381-15.285V15.389c0-8.421,6.986-15.228,15.381-15.228
			H108.298z"/>
		<path fill="#61C2D3" d="M122.942,96.02c0,17.108-13.882,30.953-30.967,30.953c-17.114,0-30.999-13.845-30.999-30.953
			c0-17.105,13.885-30.958,30.967-30.958C109.09,65.035,122.942,78.914,122.942,96.02z"/>
		<path fill="#61C2D3" d="M91.976,65.035c-17.114,0-30.97,13.852-30.97,30.952c0,17.108,13.885,30.958,30.97,30.958
			c17.114,0,30.967-13.878,30.967-30.958C122.942,78.914,109.09,65.035,91.976,65.035z M91.976,65.035
			c-17.114,0-30.97,13.852-30.97,30.952c0,17.108,13.885,30.958,30.97,30.958c17.114,0,30.967-13.878,30.967-30.958
			C122.942,78.914,109.09,65.035,91.976,65.035z"/>
		<path fill="#FFFFFF" d="M127.613,14.803c0-0.558-0.03-1.087-0.118-1.645c-0.116-0.88-0.323-1.73-0.588-2.522
			c-1.263-3.434-3.521-6.367-6.486-8.246c-0.028-0.029-0.061-0.029-0.061-0.059c-2.229-1.351-4.843-2.141-7.66-2.2
			c-0.059,0-0.146,0-0.205,0h-4.197L53.52,54.736l-0.059,0.03c-11.039,10.295-17.936,25.146-17.936,41.43
			c0,11.621,3.523,22.386,9.54,31.573v0.027h67.4c7.664,0,13.944-5.689,15-13.027c0.09-0.529,0.118-1.117,0.118-1.674V52.711
			c-6.753-5.693-14.912-9.829-23.925-11.794l23.955-24.031V14.803z M122.942,96.02c0,17.108-13.882,30.953-30.967,30.953
			c-17.114,0-30.999-13.845-30.999-30.953c0-17.105,13.885-30.958,30.967-30.958C109.09,65.035,122.942,78.914,122.942,96.02z"/>
	</g>
</g>
</svg>
