<?xml version="1.0" encoding="utf-8"?>
<!-- Generator: Adobe Illustrator 19.2.1, SVG Export Plug-In . SVG Version: 6.00 Build 0)  -->
<svg version="1.1" id="Layer_1" xmlns="http://www.w3.org/2000/svg" xmlns:xlink="http://www.w3.org/1999/xlink" x="0px" y="0px"
	 viewBox="0 0 1010.3 435" style="enable-background:new 0 0 1010.3 435;" xml:space="preserve">
<style type="text/css">
	.st0{fill:#61C2D3;}
	.st1{fill:#FFFFFF;}
</style>
<path class="st0" d="M435,57v122.1c-23-19.4-50.8-33.5-81.5-40.2L435,57z"/>
<g>
	<path class="st0" d="M369.2,0L182.6,186l-0.2,0.1c-37.6,35.1-61.1,85.7-61.1,141.2c0,39.6,12,76.3,32.5,107.6c0,0,0,0.1,0,0.1H52.4
		C23.8,435,0,411.6,0,382.9v-331C0,23.2,23.8,0,52.4,0H369.2z"/>
	<path class="st0" d="M419.1,326.7c0,58.3-47.3,105.5-105.5,105.5C255.3,432.2,208,385,208,326.7c0-58.3,47.3-105.5,105.5-105.5
		C371.9,221.1,419.1,268.4,419.1,326.7z"/>
	<path class="st0" d="M313.6,221.1c-58.3,0-105.5,47.2-105.5,105.5c0,58.3,47.3,105.5,105.5,105.5c58.3,0,105.5-47.3,105.5-105.5
		C419.1,268.4,371.9,221.1,313.6,221.1z M313.6,221.1c-58.3,0-105.5,47.2-105.5,105.5c0,58.3,47.3,105.5,105.5,105.5
		c58.3,0,105.5-47.3,105.5-105.5C419.1,268.4,371.9,221.1,313.6,221.1z"/>
	<path class="st1" d="M435,49.9c0-1.9-0.1-3.7-0.4-5.6c-0.4-3-1.1-5.9-2-8.6c-4.3-11.7-12-21.7-22.1-28.1c-0.1-0.1-0.2-0.1-0.2-0.2
		c-7.6-4.6-16.5-7.3-26.1-7.5c-0.2,0-0.5,0-0.7,0h-14.3L182.6,186l-0.2,0.1c-37.6,35.1-61.1,85.7-61.1,141.2
		c0,39.6,12,76.3,32.5,107.6c0,0,0,0.1,0,0.1h229.6c26.1,0,47.5-19.4,51.1-44.4c0.3-1.8,0.4-3.8,0.4-5.7V179.1
		c-23-19.4-50.8-33.5-81.5-40.2L435,57V49.9z M419.1,326.7c0,58.3-47.3,105.5-105.5,105.5C255.3,432.2,208,385,208,326.7
		c0-58.3,47.3-105.5,105.5-105.5C371.9,221.1,419.1,268.4,419.1,326.7z"/>
</g>
<g>
	<path class="st1" d="M601.6,228.9c-3.3,7-7.8,12.9-13.6,17.6c-5.8,4.7-12.8,8.4-20.9,10.9c-8.1,2.5-17,3.8-26.9,3.8
		c-13.8,0-27.3-2.4-40.6-7.1c-13.3-4.7-25.4-12-36.2-21.9l23.5-28.2c8.3,6.7,16.8,12.1,25.5,16c8.7,4,18.2,6,28.6,6
		c8.3,0,14.7-1.5,19.3-4.5c4.6-3,6.9-7.2,6.9-12.5v-0.5c0-2.6-0.5-4.9-1.4-6.9c-1-2-2.8-3.8-5.4-5.6c-2.7-1.7-6.4-3.4-11.2-5.2
		c-4.8-1.7-10.9-3.5-18.5-5.4c-9.2-2.2-17.5-4.7-24.9-7.5c-7.4-2.8-13.8-6.2-18.9-10.2c-5.2-4.1-9.2-9.1-12.1-15.1
		c-2.9-6-4.3-13.5-4.3-22.5v-0.5c0-8.3,1.5-15.7,4.6-22.4c3.1-6.6,7.4-12.4,13-17.2c5.6-4.8,12.2-8.5,20-11.1
		c7.7-2.6,16.3-3.9,25.6-3.9c13.3,0,25.5,2,36.6,6c11.1,4,21.3,9.7,30.7,17.1l-20.7,30c-8.1-5.5-16-9.9-23.8-13.1
		c-7.8-3.2-15.5-4.8-23.3-4.8c-7.8,0-13.6,1.5-17.5,4.5c-3.9,3-5.8,6.8-5.8,11.3v0.5c0,2.9,0.6,5.5,1.7,7.6c1.1,2.2,3.2,4.1,6.1,5.8
		c2.9,1.7,7,3.4,12.1,4.9s11.5,3.4,19.3,5.4c9.2,2.4,17.3,5.1,24.5,8.2c7.2,3,13.2,6.6,18.2,10.9c4.9,4.2,8.6,9.2,11.2,14.9
		c2.5,5.7,3.8,12.5,3.8,20.4v0.5C606.5,213.9,604.9,221.9,601.6,228.9z"/>
	<path class="st1" d="M613,258.5V77.4h39.8v181.1H613z"/>
	<path class="st1" d="M787.6,258.5L747,196.4l-40.9,62.1h-45.3l63.1-92.1l-60.5-89H710l38,58.7l38.3-58.7h45.3l-60.5,88.5l63.1,92.6
		H787.6z"/>
	<path class="st1" d="M962.3,258.5l-40.6-62.1l-40.9,62.1h-45.3l63.1-92.1l-60.5-89h46.6l38,58.7L961,77.4h45.3l-60.5,88.5
		l63.1,92.6H962.3z"/>
</g>
<g>
	<path class="st1" d="M548.9,271.9h12.3l-43.4,101.7h-10.1l-43.4-101.7h12.7l35.9,87L548.9,271.9z"/>
	<path class="st1" d="M659.8,372.9h-12.3l-11.8-26.7h-55l-12,26.7h-11.7l46-101.7h10.7L659.8,372.9z M608.3,284.6l-23.1,51.5h46
		L608.3,284.6z"/>
	<path class="st1" d="M753.6,329.7c0,7.4-1,13.9-3,19.5c-2,5.6-4.9,10.2-8.6,14c-3.7,3.8-8.1,6.6-13.3,8.4
		c-5.1,1.9-10.9,2.8-17.2,2.8c-6.3,0-12-0.9-17.1-2.8c-5.1-1.9-9.6-4.7-13.3-8.4c-3.7-3.7-6.6-8.3-8.6-13.8c-2-5.5-3-11.8-3-18.9
		v-58.7h11.4v58c0,11,2.7,19.4,8.2,25.3c5.4,5.9,13,8.8,22.7,8.8c9.3,0,16.7-2.8,22.2-8.4c5.5-5.6,8.2-13.9,8.2-25v-58.7h11.4V329.7
		z"/>
	<path class="st1" d="M779.3,271.9h11.4v90.5h56.9v10.5h-68.3V271.9z"/>
	<path class="st1" d="M887.8,372.9h-11.4v-90.5h-33.9v-10.5h79.2v10.5h-33.9V372.9z"/>
	<path class="st1" d="M948.2,303.5c0.8,1.9,2.2,3.7,4.2,5.3c2,1.6,4.8,3,8.4,4.3c3.6,1.3,8.1,2.5,13.7,3.7
		c11.3,2.5,19.6,6,24.9,10.4c5.3,4.4,8,10.5,8,18.4c0,4.3-0.9,8.3-2.6,11.9c-1.7,3.6-4.1,6.6-7.1,9.1s-6.6,4.4-10.9,5.8
		c-4.2,1.3-8.9,2-13.9,2c-8.1,0-15.5-1.3-22.1-3.9c-6.7-2.6-13.1-6.6-19.1-12.1l7.1-8.4c5.3,4.8,10.6,8.4,16,10.8
		c5.4,2.4,11.6,3.5,18.6,3.5c6.8,0,12.3-1.6,16.4-4.8c4.1-3.2,6.1-7.4,6.1-12.6c0-2.4-0.4-4.5-1.2-6.4c-0.8-1.9-2.1-3.6-4.1-5.1
		c-1.9-1.5-4.6-2.9-8-4.2c-3.4-1.3-7.8-2.5-13.1-3.6c-5.8-1.3-10.8-2.7-15.1-4.3c-4.3-1.6-7.8-3.6-10.6-5.9c-2.8-2.3-4.9-5-6.2-8.1
		c-1.4-3.1-2-6.7-2-11c0-4,0.8-7.8,2.5-11.1c1.6-3.4,3.9-6.3,6.9-8.7c3-2.5,6.5-4.4,10.5-5.8c4-1.4,8.5-2.1,13.3-2.1
		c7.4,0,13.9,1,19.4,3.1c5.5,2,10.9,5.1,16.1,9.2l-6.6,8.8c-4.7-3.8-9.5-6.6-14.2-8.4s-9.7-2.6-14.9-2.6c-3.3,0-6.2,0.4-8.9,1.3
		c-2.6,0.9-4.9,2-6.8,3.5c-1.9,1.4-3.3,3.2-4.3,5.2c-1,2-1.5,4.2-1.5,6.5C947.1,299.4,947.4,301.6,948.2,303.5z"/>
</g>
</svg>
