<?xml version="1.0" encoding="utf-8"?>
<!-- Generator: Adobe Illustrator 16.0.3, SVG Export Plug-In . SVG Version: 6.00 Build 0)  -->
<!DOCTYPE svg PUBLIC "-//W3C//DTD SVG 1.1//EN" "http://www.w3.org/Graphics/SVG/1.1/DTD/svg11.dtd">
<svg version="1.1" id="Capa_1" xmlns="http://www.w3.org/2000/svg" xmlns:xlink="http://www.w3.org/1999/xlink" x="0px" y="0px"
	 width="173px" height="60px" viewBox="0 0 173 60" enable-background="new 0 0 173 60" xml:space="preserve">
<g>
	<g>
		<path fill-rule="evenodd" clip-rule="evenodd" fill="#FFFFFF" d="M173.173,60.204c-57.666,0-115.333,0-173,0
			c0-20.011,0-40.021,0-60.031c57.667,0,115.333,0,173,0C173.173,20.184,173.173,40.193,173.173,60.204z M23.47,17.93
			c-1.205-0.484-2.264-1.064-3.398-1.329c-1.543-0.361-3.082-0.234-4.636,0.333c-2.011,0.733-3.615,1.973-4.885,3.591
			c-1.704,2.171-2.701,4.69-3.157,7.436c-0.218,1.313-0.069,2.628-1.378,3.778c-1.929,1.694-3.156,4.026-3.972,6.516
			c-1.255,3.831-1.564,7.728-0.666,11.658c0.446,1.952,1.584,3.271,3.992,3.257c7.147-0.041,14.295-0.011,21.443-0.025
			c0.29,0,0.669-0.083,0.854-0.274c2.241-2.313,4.453-4.652,6.003-7.518c0.928-1.715,1.658-3.481,1.45-5.495
			c-0.123-1.188-0.759-2.092-1.834-2.484c-1.626-0.595-3.342-0.659-5.002-0.102c-1.937,0.651-3.837,1.409-5.759,2.104
			c-0.377,0.136-0.784,0.187-1.172,0.294c-2.888,0.803-5.74,1.641-8.826,0.989c-2.374-0.501-3.32-2.212-2.998-4.33
			c0.355-2.344,1.533-4.316,3-6.097c1.246-1.513,2.584-2.967,4.01-4.311c1.71-1.611,3.523-3.119,5.355-4.593
			c1.128-0.907,2.36-1.69,3.573-2.489c1.846-1.216,3.687-2.445,5.583-3.578c1.484-0.888,3.038-1.663,4.583-2.445
			c2.559-1.297,5.136-2.558,7.702-3.843c0.319-0.159,0.611-0.371,0.916-0.558c-1.278,0.272-2.57,0.522-3.685,1.111
			c-1.616,0.853-3.184,0.894-4.946,0.615c-2.92-0.463-5.567,0.476-7.852,2.295C25.897,13.925,24.455,15.798,23.47,17.93z
			 M24.505,58.36c0.015,0.035,0.03,0.071,0.045,0.106c0.155-0.044,0.322-0.063,0.464-0.135c1.197-0.595,2.404-1.172,3.579-1.808
			c1.747-0.944,3.457-1.956,5.211-2.886c0.487-0.259,1.073-0.458,1.615-0.462c5.247-0.034,10.493-0.016,15.74-0.026
			c0.603-0.001,1.209-0.054,1.806-0.139c0.263-0.037,0.514-0.202,0.757-0.334c1.437-0.778,1.945-2.135,2.146-3.623
			c0.56-4.13-0.063-8.085-1.884-11.84c-1.145-2.36-2.718-4.455-5.021-5.673c-1.366-0.723-1.768-1.472-1.462-2.83
			c0.019-0.083,0.028-0.171,0.03-0.257c0.168-6.844-1.753-12.75-7.59-16.95c-1.141,0.811-2.231,1.619-3.353,2.379
			c-2.647,1.794-5.041,3.883-7.338,6.101c-2.271,2.192-4.332,4.544-5.887,7.302c-0.909,1.612-1.626,3.303-1.56,5.213
			c0.05,1.449,0.845,2.562,2.1,2.943c1.681,0.512,3.32,0.642,5.033-0.062c2.101-0.864,4.28-1.54,6.431-2.283
			c0.379-0.131,0.789-0.169,1.175-0.282c2.588-0.761,5.188-1.31,7.91-0.753c2.091,0.428,3.292,1.881,2.999,3.989
			c-0.155,1.119-0.5,2.254-0.984,3.274c-0.958,2.024-2.306,3.808-3.916,5.373c-1.588,1.544-3.167,3.102-4.819,4.577
			c-1.014,0.906-2.141,1.691-3.245,2.494c-1.65,1.199-3.293,2.41-4.995,3.533C27.868,56.379,26.171,57.347,24.505,58.36z
			 M112.324,27.781c-1.063,0-1.952,0.056-2.829-0.017c-0.788-0.065-1.196,0.319-1.594,0.911c-0.979,1.458-2.007,2.884-3.058,4.384
			c-1.044-1.514-2.055-2.955-3.035-4.415c-0.375-0.558-0.764-0.917-1.525-0.884c-1.554,0.067-3.113-0.009-4.668,0.041
			c-0.39,0.013-0.878,0.173-1.136,0.443c-1.121,1.173-2.175,2.409-3.25,3.626c-0.701,0.793-1.396,1.591-2.094,2.387
			c-0.063-0.03-0.128-0.06-0.191-0.09c0-2.113,0-4.226,0-6.319c-1.085,0-2.076,0-3.159,0c0,0.378,0,0.688,0,0.999
			c0,1.96,0,3.921,0,5.881c0,2.075-0.001,4.151,0.002,6.227c0,0.363-0.092,0.79,0.511,0.781c0.854-0.013,1.709-0.004,2.69-0.004
			c0-2.26,0-4.414,0-6.711c0.233,0.199,0.332,0.262,0.402,0.347c1.507,1.822,3.002,3.655,4.522,5.466
			c0.284,0.339,0.646,0.816,1.006,0.848c1.217,0.106,2.448,0.041,3.839,0.041c-0.727-0.869-1.335-1.608-1.956-2.337
			c-1.239-1.451-2.484-2.897-3.73-4.343c-0.267-0.31-0.263-0.523,0.044-0.864c1.655-1.836,3.269-3.709,4.938-5.619
			c1.517,2.035,2.981,4.028,4.479,5.997c0.563,0.739,0.798,1.514,0.747,2.453c-0.074,1.351-0.039,2.709,0.002,4.063
			c0.007,0.223,0.271,0.615,0.438,0.628c0.879,0.063,1.765,0.029,2.752,0.029c0-0.417,0-0.726,0-1.035c0-1.47-0.015-2.94,0.011-4.41
			c0.006-0.324,0.067-0.71,0.251-0.96C108.531,32.862,110.36,30.421,112.324,27.781z M82.691,27.931
			c-3.522,0-6.945-0.045-10.364,0.039c-0.678,0.017-1.48,0.379-1.988,0.843c-1.368,1.247-1.772,3.48-0.972,5.146
			c0.277,0.576,0.808,1.107,1.352,1.461c0.982,0.642,2.138,0.738,3.303,0.731c1.555-0.009,3.113-0.015,4.665,0.066
			c1.042,0.055,1.529,0.767,1.366,1.773c-0.133,0.824-0.654,1.242-1.771,1.271c-1.641,0.043-3.284,0.021-4.926,0.024
			c-1.203,0.003-2.406,0.001-3.644,0.001c0,0.854,0,1.609,0,2.347c3.52,0,6.97,0.049,10.417-0.041
			c0.701-0.018,1.529-0.404,2.054-0.888c1.313-1.211,1.677-3.585,0.875-5.168c-0.256-0.505-0.695-1.077-1.186-1.267
			c-0.966-0.374-2.018-0.619-3.052-0.702c-1.432-0.114-2.879-0.025-4.32-0.031c-0.287-0.001-0.579-0.006-0.859-0.062
			c-1.139-0.225-1.584-1.269-1.037-2.303c0.464-0.877,1.283-0.882,2.081-0.89c2.362-0.022,4.725-0.009,7.088-0.009
			c0.305,0,0.609,0,0.921,0C82.691,29.402,82.691,28.662,82.691,27.931z M143.411,41.735c3.041,0,5.977,0.004,8.912-0.003
			c0.46-0.001,0.951,0.043,1.373-0.098c0.792-0.263,1.679-0.489,2.283-1.012c1.278-1.105,1.597-3.816,0.71-5.254
			c-0.298-0.482-0.765-1.013-1.268-1.181c-1.012-0.34-2.095-0.55-3.161-0.622c-1.491-0.102-2.999,0.039-4.49-0.065
			c-0.523-0.037-1.202-0.369-1.479-0.786c-0.392-0.59-0.278-1.448,0.322-1.879c0.489-0.352,1.202-0.52,1.823-0.536
			c2.332-0.06,4.667-0.024,7.001-0.025c0.31,0,0.618,0,1.017,0c0-0.722,0.038-1.353-0.024-1.973
			c-0.019-0.187-0.318-0.496-0.488-0.495c-3.254,0.013-6.519-0.086-9.759,0.15c-3.027,0.22-4.564,3.809-2.869,6.414
			c0.317,0.487,0.864,0.968,1.404,1.139c1.042,0.33,2.147,0.53,3.24,0.612c1.49,0.113,2.997,0.007,4.489,0.106
			c1.204,0.08,1.711,1.301,1.085,2.344c-0.437,0.728-1.151,0.697-1.821,0.704c-2.449,0.027-4.898,0.012-7.348,0.013
			c-0.308,0-0.614,0-0.953,0C143.411,40.139,143.411,40.876,143.411,41.735z M159.562,27.831c-0.022,0.3-0.057,0.551-0.058,0.802
			c-0.003,4.093-0.005,8.186,0.003,12.277c0.001,0.34-0.152,0.815,0.462,0.82c0.886,0.006,1.771,0.001,2.783,0.001
			c0-1.952,0-3.804,0-5.66c1.987,0,3.844,0,5.776,0c0,1.897,0,3.73,0,5.605c1.097,0,2.114,0,3.231,0c0-0.973,0-1.887,0-2.801
			c0-3.43,0.009-6.859-0.017-10.29c-0.002-0.266-0.231-0.747-0.384-0.759c-0.93-0.071-1.866-0.036-2.893-0.036
			c0,1.946,0,3.745,0,5.521c-1.956,0-3.813,0-5.763,0c0-1.872,0-3.675,0-5.482C161.612,27.831,160.617,27.831,159.562,27.831z
			 M122.039,41.732c1.013,0,1.873,0.035,2.726-0.027c0.184-0.014,0.473-0.368,0.487-0.581c0.058-0.831,0.024-1.669,0.024-2.504
			c0.001-3.343,0.003-6.684-0.004-10.026c-0.001-0.346,0.136-0.808-0.477-0.809c-0.885,0-1.77,0-2.775,0c0,1.903,0,3.726,0,5.539
			c-1.982,0-3.843,0-5.803,0c0-1.855,0-3.655,0-5.476c-1.12,0-2.138,0-3.16,0c0,4.654,0,9.241,0,13.802c1.094,0,2.11,0,3.215,0
			c0-1.912,0-3.74,0-5.6c1.952,0,3.813,0,5.767,0C122.039,37.924,122.039,39.756,122.039,41.732z M126.295,41.735
			c1.027,0,1.892-0.04,2.748,0.014c0.584,0.037,0.828-0.258,1.011-0.723c0.272-0.693,0.522-1.399,0.854-2.064
			c0.107-0.214,0.438-0.444,0.67-0.449c1.843-0.036,3.688-0.034,5.531-0.001c0.207,0.004,0.5,0.224,0.599,0.42
			c0.347,0.691,0.596,1.431,0.945,2.119c0.138,0.271,0.43,0.633,0.673,0.65c1.018,0.073,2.044,0.031,3.067,0.031
			c0-0.171,0.018-0.235-0.003-0.281c-1.727-3.776-3.581-7.501-5.132-11.347c-0.737-1.831-1.653-2.635-3.639-2.367
			c-0.775,0.104-1.138,0.313-1.433,1.013c-0.778,1.847-1.646,3.655-2.476,5.48C128.597,36.677,127.483,39.124,126.295,41.735z
			 M46.935,4.699c0.072,0.274,0.139,0.799,0.344,1.262c0.694,1.566,2.932,2.079,3.933,0.909c0.833-0.972,1.125-2.104,0.836-3.369
			c-0.395-1.731-2.061-2.771-3.466-2.04C47.432,2.06,46.968,3.173,46.935,4.699z"/>
		<path fill-rule="evenodd" clip-rule="evenodd" d="M23.47,17.93c0.985-2.132,2.428-4.005,4.298-5.494
			c2.284-1.819,4.931-2.758,7.852-2.295c1.762,0.279,3.33,0.238,4.946-0.615c1.114-0.588,2.407-0.839,3.685-1.111
			c-0.305,0.187-0.597,0.398-0.916,0.558c-2.565,1.285-5.143,2.545-7.702,3.843c-1.544,0.783-3.098,1.558-4.583,2.445
			c-1.897,1.133-3.738,2.362-5.583,3.578c-1.212,0.799-2.444,1.582-3.573,2.489c-1.832,1.474-3.646,2.982-5.355,4.593
			c-1.426,1.344-2.764,2.798-4.01,4.311c-1.466,1.78-2.644,3.753-3,6.097c-0.322,2.118,0.624,3.829,2.998,4.33
			c3.086,0.651,5.938-0.187,8.826-0.989c0.388-0.107,0.795-0.158,1.172-0.294c1.922-0.695,3.823-1.453,5.759-2.104
			c1.66-0.558,3.375-0.493,5.002,0.102c1.075,0.393,1.711,1.296,1.834,2.484c0.208,2.014-0.521,3.78-1.45,5.495
			c-1.55,2.865-3.762,5.205-6.003,7.518c-0.186,0.191-0.565,0.274-0.854,0.274c-7.148,0.015-14.296-0.016-21.443,0.025
			c-2.407,0.014-3.546-1.305-3.992-3.257c-0.898-3.931-0.589-7.827,0.666-11.658c0.816-2.489,2.043-4.821,3.972-6.516
			c1.309-1.149,1.16-2.465,1.378-3.778c0.456-2.746,1.453-5.265,3.157-7.436c1.27-1.618,2.874-2.858,4.885-3.591
			c1.554-0.567,3.093-0.694,4.636-0.333C21.206,16.866,22.265,17.446,23.47,17.93z"/>
		<path fill-rule="evenodd" clip-rule="evenodd" d="M24.505,58.36c1.666-1.014,3.363-1.981,4.989-3.056
			c1.701-1.123,3.345-2.334,4.995-3.533c1.104-0.803,2.23-1.588,3.245-2.494c1.651-1.476,3.23-3.033,4.819-4.577
			c1.61-1.565,2.957-3.349,3.916-5.373c0.484-1.021,0.829-2.155,0.984-3.274c0.293-2.108-0.908-3.562-2.999-3.989
			c-2.721-0.557-5.321-0.008-7.91,0.753c-0.386,0.113-0.796,0.151-1.175,0.282c-2.151,0.743-4.33,1.419-6.431,2.283
			c-1.712,0.703-3.352,0.573-5.033,0.062c-1.254-0.382-2.049-1.494-2.1-2.943c-0.066-1.91,0.651-3.601,1.56-5.213
			c1.555-2.758,3.616-5.11,5.887-7.302c2.297-2.218,4.691-4.307,7.338-6.101c1.122-0.76,2.212-1.568,3.353-2.379
			c5.837,4.2,7.758,10.105,7.59,16.95c-0.002,0.086-0.011,0.174-0.03,0.257c-0.306,1.358,0.096,2.107,1.462,2.83
			c2.303,1.218,3.876,3.313,5.021,5.673c1.821,3.755,2.443,7.71,1.884,11.84c-0.202,1.488-0.71,2.845-2.146,3.623
			c-0.243,0.132-0.494,0.297-0.757,0.334c-0.597,0.085-1.203,0.138-1.806,0.139c-5.247,0.011-10.493-0.008-15.74,0.026
			c-0.542,0.004-1.128,0.203-1.615,0.462c-1.754,0.93-3.465,1.941-5.211,2.886c-1.175,0.636-2.382,1.213-3.579,1.808
			c-0.142,0.071-0.309,0.091-0.464,0.135C24.536,58.432,24.521,58.396,24.505,58.36z"/>
		<path fill-rule="evenodd" clip-rule="evenodd" d="M112.324,27.781c-1.964,2.64-3.793,5.081-5.591,7.544
			c-0.184,0.25-0.245,0.636-0.251,0.96c-0.025,1.47-0.011,2.94-0.011,4.41c0,0.31,0,0.618,0,1.035c-0.987,0-1.873,0.033-2.752-0.029
			c-0.167-0.013-0.432-0.405-0.438-0.628c-0.041-1.354-0.076-2.713-0.002-4.063c0.051-0.939-0.184-1.714-0.747-2.453
			c-1.497-1.969-2.962-3.962-4.479-5.997c-1.67,1.909-3.283,3.783-4.938,5.619c-0.307,0.341-0.311,0.555-0.044,0.864
			c1.246,1.445,2.491,2.892,3.73,4.343c0.621,0.729,1.229,1.468,1.956,2.337c-1.391,0-2.622,0.065-3.839-0.041
			c-0.359-0.031-0.722-0.509-1.006-0.848c-1.521-1.811-3.016-3.644-4.522-5.466c-0.07-0.085-0.169-0.147-0.402-0.347
			c0,2.297,0,4.451,0,6.711c-0.98,0-1.836-0.009-2.69,0.004c-0.603,0.009-0.51-0.418-0.511-0.781
			c-0.003-2.075-0.002-4.151-0.002-6.227c0-1.96,0-3.92,0-5.881c0-0.31,0-0.62,0-0.999c1.083,0,2.074,0,3.159,0
			c0,2.093,0,4.206,0,6.319c0.063,0.03,0.128,0.06,0.191,0.09c0.698-0.796,1.393-1.594,2.094-2.387
			c1.075-1.217,2.129-2.453,3.25-3.626c0.258-0.27,0.746-0.431,1.136-0.443c1.555-0.049,3.114,0.027,4.668-0.041
			c0.762-0.033,1.15,0.326,1.525,0.884c0.98,1.46,1.991,2.901,3.035,4.415c1.051-1.5,2.079-2.925,3.058-4.384
			c0.397-0.592,0.806-0.977,1.594-0.911C110.372,27.837,111.261,27.781,112.324,27.781z"/>
		<path fill-rule="evenodd" clip-rule="evenodd" d="M82.691,27.931c0,0.73,0,1.471,0,2.344c-0.312,0-0.616,0-0.921,0
			c-2.363,0-4.726-0.013-7.088,0.009c-0.798,0.007-1.617,0.012-2.081,0.89c-0.547,1.034-0.102,2.078,1.037,2.303
			c0.28,0.056,0.572,0.061,0.859,0.062c1.441,0.006,2.888-0.083,4.32,0.031c1.034,0.083,2.086,0.328,3.052,0.702
			c0.491,0.189,0.93,0.762,1.186,1.267c0.803,1.583,0.438,3.957-0.875,5.168c-0.524,0.483-1.353,0.87-2.054,0.888
			c-3.447,0.09-6.897,0.041-10.417,0.041c0-0.737,0-1.492,0-2.347c1.238,0,2.44,0.002,3.644-0.001
			c1.642-0.003,3.285,0.019,4.926-0.024c1.118-0.029,1.638-0.447,1.771-1.271c0.164-1.007-0.324-1.719-1.366-1.773
			c-1.552-0.081-3.109-0.075-4.665-0.066c-1.165,0.007-2.321-0.09-3.303-0.731c-0.544-0.354-1.075-0.885-1.352-1.461
			c-0.8-1.666-0.396-3.899,0.972-5.146c0.508-0.463,1.311-0.826,1.988-0.843C75.746,27.886,79.169,27.931,82.691,27.931z"/>
		<path fill-rule="evenodd" clip-rule="evenodd" d="M143.411,41.735c0-0.859,0-1.597,0-2.447c0.339,0,0.646,0,0.953,0
			c2.449-0.001,4.898,0.015,7.348-0.013c0.67-0.007,1.385,0.023,1.821-0.704c0.626-1.043,0.119-2.264-1.085-2.344
			c-1.492-0.1-2.999,0.007-4.489-0.106c-1.093-0.082-2.198-0.282-3.24-0.612c-0.54-0.171-1.087-0.651-1.404-1.139
			c-1.695-2.604-0.158-6.193,2.869-6.414c3.24-0.236,6.505-0.137,9.759-0.15c0.17,0,0.47,0.308,0.488,0.495
			c0.063,0.62,0.024,1.251,0.024,1.973c-0.398,0-0.707,0-1.017,0c-2.334,0-4.669-0.035-7.001,0.025
			c-0.621,0.016-1.334,0.185-1.823,0.536c-0.601,0.431-0.714,1.289-0.322,1.879c0.276,0.417,0.955,0.749,1.479,0.786
			c1.491,0.104,2.999-0.036,4.49,0.065c1.066,0.072,2.149,0.282,3.161,0.622c0.503,0.168,0.97,0.698,1.268,1.181
			c0.887,1.438,0.568,4.148-0.71,5.254c-0.604,0.522-1.491,0.749-2.283,1.012c-0.422,0.141-0.913,0.097-1.373,0.098
			C149.388,41.739,146.452,41.735,143.411,41.735z"/>
		<path fill-rule="evenodd" clip-rule="evenodd" d="M159.562,27.831c1.056,0,2.051,0,3.143,0c0,1.807,0,3.61,0,5.482
			c1.949,0,3.807,0,5.763,0c0-1.775,0-3.575,0-5.521c1.026,0,1.963-0.036,2.893,0.036c0.152,0.012,0.382,0.493,0.384,0.759
			c0.025,3.43,0.017,6.86,0.017,10.29c0,0.914,0,1.828,0,2.801c-1.117,0-2.135,0-3.231,0c0-1.875,0-3.708,0-5.605
			c-1.933,0-3.789,0-5.776,0c0,1.856,0,3.708,0,5.66c-1.013,0-1.897,0.005-2.783-0.001c-0.614-0.005-0.461-0.48-0.462-0.82
			c-0.008-4.092-0.006-8.185-0.003-12.277C159.505,28.382,159.539,28.131,159.562,27.831z"/>
		<path fill-rule="evenodd" clip-rule="evenodd" d="M122.039,41.732c0-1.977,0-3.809,0-5.682c-1.954,0-3.814,0-5.767,0
			c0,1.859,0,3.688,0,5.6c-1.104,0-2.121,0-3.215,0c0-4.561,0-9.147,0-13.802c1.022,0,2.04,0,3.16,0c0,1.821,0,3.62,0,5.476
			c1.96,0,3.82,0,5.803,0c0-1.813,0-3.635,0-5.539c1.006,0,1.891,0,2.775,0c0.612,0,0.476,0.463,0.477,0.809
			c0.007,3.342,0.005,6.683,0.004,10.026c0,0.835,0.033,1.673-0.024,2.504c-0.015,0.213-0.304,0.567-0.487,0.581
			C123.912,41.768,123.052,41.732,122.039,41.732z"/>
		<path fill-rule="evenodd" clip-rule="evenodd" d="M126.295,41.735c1.188-2.611,2.302-5.059,3.416-7.505
			c0.83-1.825,1.697-3.634,2.476-5.48c0.295-0.7,0.657-0.909,1.433-1.013c1.985-0.268,2.901,0.537,3.639,2.367
			c1.551,3.846,3.405,7.571,5.132,11.347c0.021,0.046,0.003,0.11,0.003,0.281c-1.023,0-2.05,0.042-3.067-0.031
			c-0.243-0.018-0.535-0.38-0.673-0.65c-0.35-0.688-0.599-1.428-0.945-2.119c-0.099-0.196-0.392-0.416-0.599-0.42
			c-1.844-0.033-3.688-0.035-5.531,0.001c-0.232,0.005-0.563,0.235-0.67,0.449c-0.331,0.665-0.581,1.371-0.854,2.064
			c-0.183,0.465-0.427,0.76-1.011,0.723C128.187,41.695,127.322,41.735,126.295,41.735z M136.545,35.972
			c-0.765-1.77-1.476-3.415-2.187-5.061c-0.075,0.015-0.149,0.03-0.225,0.045c-0.668,1.644-1.336,3.29-2.037,5.015
			C133.616,35.972,134.987,35.972,136.545,35.972z"/>
		<path fill-rule="evenodd" clip-rule="evenodd" d="M46.935,4.699c0.033-1.526,0.497-2.639,1.647-3.238
			c1.405-0.731,3.071,0.309,3.466,2.04c0.289,1.265-0.004,2.397-0.836,3.369c-1.001,1.17-3.239,0.658-3.933-0.909
			C47.074,5.498,47.007,4.974,46.935,4.699z"/>
		<path fill-rule="evenodd" clip-rule="evenodd" fill="#FFFFFF" d="M136.545,35.972c-1.558,0-2.929,0-4.448,0
			c0.701-1.726,1.369-3.371,2.037-5.015c0.075-0.015,0.149-0.03,0.225-0.045C135.069,32.557,135.78,34.202,136.545,35.972z"/>
	</g>
</g>
</svg>
